# xmcd
#
# Track frame offsets:
#	150
#	4794
#	14786
#	28906
#	52115
#	76121
#	91319
#	109616
#	133417
#	152341
#	167772
#	191013
#	208890
#	233451
#	248793
#
# Disc length: 3582 seconds
#
# Revision: 0
# Processed by: cddbd v1.5.2PL0 Copyright (c) Steve Scherf et al.
# Submitted via: audiograbber 1.83.01
#
DISCID=c20dfc0f
DTITLE=DJ Paul - Volume 16: 4 Da Summer Of '94
DYEAR=1994
DGENRE=Gangsta
TTITLE0=Intro
TTITLE1=Anna Got Me Clickin'
TTITLE2=Tired of Dis Shir
TTITLE3=Gettin' Real Buck
TTITLE4=Gotta Touch 'Em, Pt. 1
TTITLE5=Break da Law, Pt. 1
TTITLE6=Twist It, Hit It, Light It
TTITLE7=I Cheefa
TTITLE8=Yeah, They Done Fucked Up
TTITLE9=Kickin' in da Door
TTITLE10=Slangin' Rocks
TTITLE11=For My Niggaz
TTITLE12=Now I'm High, Pt. 1
TTITLE13=Neighborhood Hoe
TTITLE14=Outro
EXTD=
EXTT0=
EXTT1=
EXTT2=
EXTT3=
EXTT4=
EXTT5=
EXTT6=
EXTT7=
EXTT8=
EXTT9=
EXTT10=
EXTT11=
EXTT12=
EXTT13=
EXTT14=
PLAYORDER=
